<?xml version="1.0" encoding="UTF-8"?>
<svg id="Layer_1" data-name="Layer 1" xmlns="http://www.w3.org/2000/svg" version="1.1" viewBox="0 0 16 16">
  <defs>
    <style>
      .cls-1 {
        fill: #ff407b;
        stroke-width: 0px;
      }
    </style>
  </defs>
  <path class="cls-1" d="M1.7,7.8h2.1v4.5c0,0,0,.1-.1.1H.5v.5h3.1c.3,0,.6-.3.6-.6v-5h-2.1v-2.5h4.6v8.4c0,1.3-1,2.3-2.3,2.3H1.1v-1h3.2c.8,0,1.5-.7,1.5-1.5v-7.1h-2.6v.5h2.1v6.6c0,.5-.4,1-1,1H.5v2h3.9c1.6,0,2.8-1.3,2.8-2.8V4.2H1.7v3.6Z"/>
  <path class="cls-1" d="M11.8,12.4c0,0,0,0,0,0,2-.2,3.6-1.9,3.6-4s-1.8-4-4-4h-3.2v3.6h3.1c.3,0,.5.2.5.5s-.2.5-.5.5h-3.1v4.3c0,.8.3,1.5.8,2,.5.5,1.2.8,2,.8h4.4v-.5h-4.4c-.6,0-1.2-.3-1.6-.7-.4-.4-.7-1-.7-1.7v-3.8h2.6c.5,0,1-.4,1-1s-.4-1-1-1h-2.6v-2.5h2.6c1.9,0,3.5,1.6,3.5,3.5s-1.3,3.3-3.1,3.5c-.3,0-.6.3-.6.6s.3.6.6.6h3.1v1h-3.7c-.5,0-1-.4-1-1v-2.1h1.2c1.4,0,2.5-1.1,2.5-2.5s-1.1-2.5-2.5-2.5h-1.7v.5h1.7c1.1,0,2,.9,2,2s-.9,2-2,2h-1.7v2.6c0,.8.7,1.5,1.5,1.5h4.2v-2h-3.6s0,0,0,0Z"/>
  <path class="cls-1" d="M5.5,0c-.5,0-.9.2-1.2.5-.3.3-.5.8-.5,1.2s.2.9.5,1.2c.1.1.3.2.4.3v-.6s0,0,0,0c-.2-.2-.4-.5-.4-.9s.1-.6.4-.9c.2-.2.6-.4.9-.4s.6.1.9.4c.5.5.5,1.3,0,1.8,0,0-.3.3-.5.3s-.1,0-.1-.1v-1.1h-.5v1.1c0,.4.3.6.6.6h0c.3,0,.6-.2.8-.5.7-.7.7-1.8,0-2.5-.3-.3-.8-.5-1.2-.5Z"/>
</svg>