<?xml version="1.0" encoding="UTF-8"?>
<svg id="Layer_1" data-name="Layer 1" xmlns="http://www.w3.org/2000/svg" version="1.1" viewBox="0 0 32 32">
  <defs>
    <style>
      .cls-1 {
        fill: #ff407b;
        stroke-width: 0px;
      }
    </style>
  </defs>
  <path class="cls-1" d="M3.3,15.6h4.2v9c0,.2-.1.2-.2.2H1.1v1h6.2c.7,0,1.2-.6,1.2-1.2v-10h-4.2v-5.1h9.2v16.7c0,2.6-2.1,4.7-4.7,4.7H2.1v-2h6.5c1.7,0,3-1.3,3-3v-14.3h-5.3v1h4.2v13.3c0,1.1-.9,2-2,2H1.1v4.1h7.8c3.1,0,5.7-2.5,5.7-5.7V8.5H3.3v7.1Z"/>
  <path class="cls-1" d="M23.6,24.8c0-.1.1-.1.1-.1,4.1-.5,7.2-3.9,7.2-8s-3.6-8.1-8.1-8.1h-6.3v7.1h6.3c.5,0,1,.4,1,1s-.4,1-1,1h-6.3v8.6c0,1.6.6,3,1.7,4,1.1,1,2.5,1.7,4,1.7h8.7v-1h-8.7c-1.2,0-2.4-.5-3.3-1.4-.9-.9-1.4-2.1-1.4-3.3v-7.6h5.2c1.1,0,2-.9,2-2s-.9-2-2-2h-5.2v-5.1h5.3c3.9,0,7,3.2,7,7s-2.7,6.6-6.3,7c-.6,0-1.1.6-1.1,1.2s.5,1.1,1.2,1.1h6.2v2h-7.4c-1.1,0-2-.9-2-2v-4.2h2.3c2.8,0,5-2.3,5-5s-2.3-5-5-5h-3.4v1h3.4c2.2,0,4,1.8,4,4s-1.8,4-4,4h-3.4v5.3c0,1.7,1.3,3,3,3h8.4v-4.1h-7.2c0,0-.1,0-.1-.1Z"/>
  <path class="cls-1" d="M11,0c-.9,0-1.8.4-2.5,1-.7.7-1,1.6-1,2.5s.4,1.8,1,2.5c.2.3.5.5.8.6v-1.2c0,0-.1-.1-.2-.1-.5-.5-.7-1.1-.7-1.8s.3-1.3.7-1.8c.5-.5,1.1-.7,1.8-.7s1.3.3,1.8.7c1,1,1,2.5,0,3.5-.2.2-.6.6-1,.6s-.3-.1-.3-.3v-2.2h-1v2.2c0,.7.6,1.3,1.2,1.3h.1c.7,0,1.2-.5,1.7-.9,1.4-1.3,1.4-3.6,0-5-.7-.7-1.6-1-2.5-1Z"/>
</svg>